<svg width="108" height="23" viewBox="0 0 108 23" fill="none" xmlns="http://www.w3.org/2000/svg">
<path d="M73.0273 17.2719C75.5334 17.2719 77.2561 16.0496 77.2561 14.019C77.2561 11.6534 75.3963 11.1802 73.7125 10.8254C72.2833 10.5296 70.9523 10.4507 70.9523 9.58335C70.9523 8.85391 71.6375 8.45963 72.675 8.45963C73.8107 8.45963 74.4959 8.85391 74.6129 9.93818H77.0208C76.8255 7.90763 75.3569 6.58674 72.7144 6.58674C70.4236 6.58674 68.6227 7.63163 68.6227 9.81991C68.6227 12.0279 70.3847 12.5207 72.1857 12.8756C73.556 13.1516 74.8282 13.2502 74.8282 14.2162C74.8282 14.9259 74.163 15.3794 72.9885 15.3794C71.794 15.3794 70.9717 14.8667 70.7959 13.7036H68.3292C68.4856 15.8525 70.1107 17.2719 73.0273 17.2719Z" fill="black"/>
<path d="M87.3643 16.9762V6.86274H84.7018V12.6982C84.7018 14.0387 83.9384 14.985 82.6856 14.985C81.5499 14.985 81.0218 14.3345 81.0218 13.1516V6.86274H78.3786V13.605C78.3786 15.813 79.6314 17.2522 81.8634 17.2522C83.2732 17.2522 84.056 16.7199 84.7412 15.7934H84.8V16.9762H87.3643Z" fill="black"/>
<path d="M89.0864 16.9762H91.749V11.1014C91.749 9.76074 92.4736 8.89335 93.5505 8.89335C94.5292 8.89335 95.0967 9.48474 95.0967 10.6282V16.9762H97.7592V11.1014C97.7592 9.76074 98.4444 8.89335 99.5602 8.89335C100.539 8.89335 101.107 9.48474 101.107 10.6282V16.9762H103.77V10.1747C103.77 7.96674 102.575 6.58674 100.461 6.58674C99.1884 6.58674 98.131 7.25702 97.4458 8.36102H97.407C96.9176 7.29646 95.8995 6.58674 94.6268 6.58674C93.237 6.58674 92.2583 7.29646 91.7102 8.22302H91.6514V6.86274H89.0864V16.9762Z" fill="black"/>
<path d="M0 16.9762H2.66245V2.88047H0V16.9762Z" fill="black"/>
<path d="M9.17255 17.2719C12.2853 17.2719 14.4191 14.9456 14.4191 11.9294C14.4191 8.91302 12.2853 6.58674 9.17255 6.58674C6.05979 6.58674 3.92593 8.91302 3.92593 11.9294C3.92593 14.9456 6.05979 17.2719 9.17255 17.2719ZM9.17255 15.2216C7.5281 15.2216 6.62753 13.9007 6.62753 11.9294C6.62753 9.95791 7.5281 8.61735 9.17255 8.61735C10.7974 8.61735 11.7175 9.95791 11.7175 11.9294C11.7175 13.9007 10.7974 15.2216 9.17255 15.2216Z" fill="black"/>
<path d="M20.0811 20.4262C21.569 20.4262 22.8611 20.0714 23.7028 19.2827C24.4468 18.5927 24.8971 17.6267 24.8971 16.2074V6.86274H22.3325V7.92735H22.2933C21.6864 7.07963 20.7663 6.58674 19.5134 6.58674C16.9684 6.58674 15.1673 8.51874 15.1673 11.535C15.1673 14.5907 17.36 16.365 19.5917 16.365C20.8642 16.365 21.6277 15.8525 22.215 15.1822H22.2737V16.2862C22.2737 17.6662 21.5494 18.3956 20.042 18.3956C18.8086 18.3956 18.2409 17.9027 18.0256 17.2719H15.3827C15.6567 19.2434 17.3404 20.4262 20.0811 20.4262ZM20.042 14.2162C18.6716 14.2162 17.7711 13.2107 17.7711 11.4956C17.7711 9.80018 18.6716 8.73563 20.0224 8.73563C21.6277 8.73563 22.4108 9.99735 22.4108 11.4759C22.4108 12.9742 21.7256 14.2162 20.042 14.2162Z" fill="black"/>
<path d="M31.3686 17.2719C34.4813 17.2719 36.6152 14.9456 36.6152 11.9294C36.6152 8.91302 34.4813 6.58674 31.3686 6.58674C28.2559 6.58674 26.1219 8.91302 26.1219 11.9294C26.1219 14.9456 28.2559 17.2719 31.3686 17.2719ZM31.3686 15.2216C29.7241 15.2216 28.8236 13.9007 28.8236 11.9294C28.8236 9.95791 29.7241 8.61735 31.3686 8.61735C32.9934 8.61735 33.9136 9.95791 33.9136 11.9294C33.9136 13.9007 32.9934 15.2216 31.3686 15.2216Z" fill="black"/>
<path d="M104.737 5.20238C104.737 4.74872 105.102 4.38095 105.553 4.38095H107.184C107.635 4.38095 108 4.74872 108 5.20238C108 5.65604 107.635 6.02382 107.184 6.02382H105.553C105.102 6.02382 104.737 5.65604 104.737 5.20238Z" fill="black"/>
<path fill-rule="evenodd" clip-rule="evenodd" d="M52.7617 0C59.0685 0 64.1817 5.14873 64.1817 11.5C64.1817 17.8513 59.0685 23 52.7617 23C46.4547 23 41.3419 17.8513 41.3419 11.5C41.3419 5.14873 46.4547 0 52.7617 0ZM52.3489 0.860539C51.0461 1.04517 49.8056 2.09937 48.8426 3.8625C48.5632 4.37393 48.3112 4.93894 48.0916 5.549C49.401 5.21765 50.8394 5.02229 52.3489 4.99208V0.860539ZM47.1264 5.82521C47.3996 4.96201 47.7337 4.16783 48.1192 3.46187C48.5966 2.58784 49.1631 1.83307 49.8014 1.25337C46.3304 2.26851 43.5945 5.02365 42.5864 8.51903C43.1621 7.87623 43.9116 7.30572 44.7796 6.82502C45.4806 6.43672 46.2692 6.10023 47.1264 5.82521ZM46.8522 6.79713C46.5231 8.11572 46.3291 9.56421 46.2991 11.0843H42.1963C42.3797 9.77236 43.4265 8.52311 45.1774 7.55343C45.6853 7.27214 46.2463 7.01833 46.8522 6.79713ZM47.1248 11.0843C47.1589 9.4254 47.3961 7.86796 47.7885 6.49187C49.155 6.09673 50.7016 5.85787 52.3489 5.82354V7.61921C51.7344 9.20356 50.4809 10.4657 48.9076 11.0843H47.1248ZM46.2991 11.9157H42.1963C42.3797 13.2276 43.4265 14.4768 45.1774 15.4466C45.6853 15.7279 46.2463 15.9817 46.8522 16.2029C46.5231 14.8843 46.3291 13.4358 46.2991 11.9157ZM47.7885 16.5081C47.3961 15.132 47.1589 13.5746 47.1248 11.9157H48.9076C50.4809 12.5343 51.7344 13.7964 52.3489 15.3808V17.1765C50.7016 17.1421 49.155 16.9033 47.7885 16.5081ZM47.1264 17.1748C46.2692 16.8998 45.4806 16.5633 44.7796 16.175C43.9116 15.6943 43.1621 15.1238 42.5864 14.481C43.5945 17.9763 46.3304 20.7315 49.8014 21.7466C49.1631 21.1669 48.5966 20.4122 48.1192 19.5381C47.7337 18.8322 47.3996 18.038 47.1264 17.1748ZM52.3489 22.1395C51.0461 21.9548 49.8056 20.9006 48.8426 19.1375C48.5632 18.6261 48.3112 18.061 48.0916 17.451C49.401 17.7823 50.8394 17.9777 52.3489 18.0079V22.1395ZM55.7219 21.7466C56.3602 21.1669 56.9267 20.4122 57.404 19.5381C57.7895 18.8322 58.1241 18.038 58.397 17.1748C59.254 16.8998 60.0426 16.5633 60.7438 16.175C61.6117 15.6943 62.3614 15.1238 62.937 14.481C61.9286 17.9763 59.193 20.7315 55.7219 21.7466ZM57.432 17.451C57.2122 18.061 56.9598 18.6261 56.6806 19.1375C55.7178 20.9006 54.4772 21.9548 53.1744 22.1395V18.0079C54.6839 17.9777 56.1223 17.7823 57.432 17.451ZM58.6711 16.2029C59.2769 15.9817 59.8382 15.7279 60.3458 15.4466C62.097 14.4769 63.1436 13.2276 63.3269 11.9157H59.2244C59.1941 13.4358 59 14.8843 58.6711 16.2029ZM58.3987 11.9157C58.3644 13.5746 58.1275 15.132 57.7346 16.5081C56.3684 16.9033 54.8218 17.1421 53.1744 17.1765V15.3821C53.7888 13.7972 55.0425 12.5345 56.6163 11.9157H58.3987ZM59.2244 11.0843H63.3269C63.1436 9.77236 62.097 8.52311 60.3458 7.55343C59.8382 7.27214 59.2769 7.01833 58.6711 6.79713C59 8.11572 59.1941 9.56421 59.2244 11.0843ZM57.7346 6.49187C58.1275 7.86796 58.3644 9.4254 58.3987 11.0843H56.6163C55.0425 10.4655 53.7888 9.20282 53.1744 7.61789V5.82354C54.8218 5.85787 56.3684 6.09673 57.7346 6.49187ZM58.397 5.82521C59.254 6.10023 60.0426 6.43672 60.7438 6.82502C61.6117 7.30572 62.3614 7.87623 62.937 8.51903C61.9286 5.02365 59.193 2.26851 55.7219 1.25337C56.3602 1.83307 56.9267 2.58784 57.404 3.46187C57.7895 4.16783 58.1241 4.96201 58.397 5.82521ZM53.1744 0.860539C54.4772 1.04517 55.7178 2.09937 56.6806 3.8625C56.9598 4.37393 57.2122 4.93894 57.432 5.549C56.1223 5.21765 54.6839 5.02229 53.1744 4.99208V0.860539Z" fill="black"/>
</svg>
